<?xml version="1.0" encoding="utf-8"?>
<!-- Generator: Adobe Illustrator 28.0.0, SVG Export Plug-In . SVG Version: 6.00 Build 0)  -->
<svg version="1.1" id="Layer_1" xmlns="http://www.w3.org/2000/svg" xmlns:xlink="http://www.w3.org/1999/xlink" x="0px" y="0px"
	 viewBox="0 0 100 100" style="enable-background:new 0 0 100 100;" xml:space="preserve">
<style type="text/css">
	.st0{fill:#0000FF;}
	.st1{fill:#FFFF00;}
	.st2{fill:#FFFF00;stroke:#000000;stroke-miterlimit:10;}
</style>
<g>
	<rect y="0" class="st0" width="100" height="100"/>
</g>
<g>
	<path class="st1" d="M15.61,81.5c-3.92,0-7.11-3.19-7.11-7.11V25.61c0-3.92,3.19-7.11,7.11-7.11h29.79c3.92,0,7.11,3.19,7.11,7.11
		v48.79c0,3.92-3.19,7.11-7.11,7.11H15.61z"/>
	<g>
		<path d="M45.39,19c3.64,0,6.61,2.96,6.61,6.61v48.79c0,3.64-2.96,6.61-6.61,6.61H15.61C11.96,81,9,78.04,9,74.39V25.61
			C9,21.96,11.96,19,15.61,19H45.39 M45.39,18H15.61C11.41,18,8,21.41,8,25.61v48.79c0,4.2,3.41,7.61,7.61,7.61h29.79
			c4.2,0,7.61-3.41,7.61-7.61V25.61C53,21.41,49.59,18,45.39,18L45.39,18z"/>
	</g>
</g>
<g>
	<polygon class="st0" points="9.55,50 71.75,18.41 71.75,81.59 	"/>
	<g>
		<path d="M71.5,18.81v62.37L10.1,50L71.5,18.81 M72,18L9,50l63,32V18L72,18z"/>
	</g>
</g>
<g>
	<rect x="52" y="30" class="st0" width="24" height="41"/>
</g>
<g>
	<path class="st2" d="M69.68,40.45v13.91c0,1.74-0.69,3.15-2.07,4.24c-1.38,1.09-3.16,1.64-5.35,1.64c-2.63,0-4.64-0.91-6.04-2.73
		c-0.86,0.98-1.78,1.68-2.76,2.1s-2.19,0.63-3.63,0.63c-2.28,0-4.04-0.55-5.25-1.64c-1.22-1.09-1.83-2.67-1.83-4.72V40.45h7.56
		v12.56c0,0.62,0.07,1.03,0.2,1.23c0.13,0.2,0.39,0.3,0.79,0.3c0.74,0,1.12-0.48,1.12-1.43V40.45H60v12.56
		c0,0.6,0.07,1.01,0.21,1.22s0.4,0.31,0.8,0.31c0.75,0,1.12-0.51,1.12-1.53V40.45H69.68z"/>
	<path class="st2" d="M91.78,40.45l-6.61,9.39L92,59.76h-7.95l-3.13-4.68l-2.65,4.68h-7.82l6.99-9.76l-6.61-9.55h7.88l2.96,4.39
		l2.38-4.39H91.78z"/>
</g>
<path d="M90,77"/>
</svg>
